<?xml version="1.0" encoding="UTF-8"?><svg id="Layer_2" xmlns="http://www.w3.org/2000/svg" viewBox="0 0 404.65 130.88"><defs><style>.cls-1{fill:#fff;}</style></defs><g id="Layer_1-2"><g><path class="cls-1" d="M0,128.19V2.69H26.53l39.26,99.68L104.88,2.69h26.53v125.5h-21.51V39.8l-34.78,88.39h-18.83L21.51,39.98v88.21H0Z"/><path class="cls-1" d="M151.86,65.08C151.86,27.07,175.88,0,214.43,0s62.93,25.64,62.93,65.08-24.2,65.8-62.93,65.8-62.57-25.82-62.57-65.8Zm103.63,0c0-27.97-15.96-45.72-41.06-45.72s-40.7,17.75-40.7,45.72,15.78,46.26,40.7,46.26,41.06-17.93,41.06-46.26Z"/><path class="cls-1" d="M297.62,128.19V2.69h23.31l62.21,94.49V2.69h21.51v125.5h-23.31l-62.21-94.49v94.49h-21.51Z"/></g></g></svg>